Coordinates
version=1
nRows=6
nColumns=34
inDegrees=yes

Units are S.I. units (second, meters, Newtons, ...)
If the header above contains a line with 'inDegrees', this indicates whether rotational values are in degrees (yes) or radians (no).

endheader
time	pelvis_tilt	pelvis_list	pelvis_rotation	pelvis_tx	pelvis_ty	pelvis_tz	hip_flexion_r	hip_adduction_r	hip_rotation_r	knee_angle_r	ankle_angle_r	subtalar_angle_r	mtp_angle_r	hip_flexion_l	hip_adduction_l	hip_rotation_l	knee_angle_l	ankle_angle_l	subtalar_angle_l	mtp_angle_l	lumbar_extension	lumbar_bending	lumbar_rotation	arm_flex_r	arm_add_r	arm_rot_r	elbow_flex_r	pro_sup_r	arm_flex_l	arm_add_l	arm_rot_l	elbow_flex_l	pro_sup_l
      7.95833330	    -14.52478150	      4.87851448	     -3.61897286	     -0.06425448	      0.86744786	      0.08345636	     -5.66478064	     -2.81325507	      3.30689066	     12.09575558	     -6.35551652	      1.08020445	      0.00000000	     39.94504290	      6.56451339	     -1.05059973	     34.85342845	     -1.61879523	    -17.25824029	      0.00000000	      3.90900524	     -7.35890794	      9.57596200	     12.48112012	    -13.41665264	     11.83629452	     98.41321497	     94.07808598	    -31.92371894	    -14.03841162	     -2.93058360	     87.12480427	     96.63863839
      7.96666670	    -14.01817036	      4.98603756	     -3.88375958	     -0.06327876	      0.86957569	      0.08478975	     -5.65245492	     -3.17283813	      2.46502297	     15.76452115	    -10.10908344	      0.83196615	      0.00000000	     38.78317459	      6.70983906	     -1.12588686	     31.05096918	     -1.69474255	    -14.66971151	      0.00000000	      3.23616607	     -7.70571542	      9.69217507	     13.38595157	    -13.53360737	     13.13619569	     97.90453825	     93.74023527	    -33.25344165	    -13.47211381	     -4.63252831	     86.97907073	     96.61079549
      7.97500000	    -13.44513414	      4.94055092	     -4.04722481	     -0.06175452	      0.87118698	      0.08596511	     -5.36994149	     -3.40125736	      1.42664992	     19.83877578	    -13.78807959	     -0.22272249	      0.00000000	     37.60434274	      6.74483095	     -0.97850703	     27.64175955	     -1.55777118	    -12.10224050	      0.00000000	      2.65915430	     -7.93672081	      8.96587792	     14.90039036	    -13.51844095	     15.36443814	     96.33325291	     93.07746068	    -35.06188377	    -12.30511884	     -7.24707370	     87.12702558	     96.64965628
      7.98333330	    -12.69749937	      4.99595319	     -4.36323958	     -0.06007162	      0.87245834	      0.08744846	     -4.89757529	     -3.82563182	      0.61902409	     24.34078968	    -16.15845900	     -2.14926983	      0.00000000	     36.24405724	      6.76972308	     -0.97960918	     24.66066735	     -1.33839766	     -9.88568049	      0.00000000	      1.76022648	     -8.29893626	      9.38400432	     15.18028428	    -13.66652763	     16.21110071	     95.68169974	     92.85301671	    -35.39320524	    -12.00816144	     -8.45114566	     86.68707504	     96.65244529
      7.99166670	    -12.03700902	      4.98505355	     -4.41223630	     -0.05804931	      0.87275193	      0.08867632	     -4.43159762	     -4.18885981	     -0.19565374	     28.75827258	    -18.09668643	     -5.09410659	      0.00000000	     35.02620649	      6.81943827	     -0.77607985	     22.38176064	     -0.87699774	     -7.46553482	      0.00000000	      1.07556531	     -8.57366111	      9.29992094	     15.36612692	    -13.59599908	     17.14947935	     94.53711683	     92.63163665	    -35.54880025	    -11.75202703	     -9.76305360	     86.37973267	     96.65727649
      8.00000000	    -11.44397106	      5.02093382	     -4.35896370	     -0.05595898	      0.87230105	      0.08975979	     -3.81049404	     -4.56583633	     -0.81202345	     33.23899130	    -19.51504688	     -8.16570262	      0.00000000	     33.76480403	      6.96324875	     -0.32593110	     20.39790393	     -0.81844032	     -5.69267801	      0.00000000	      0.53810037	     -8.95432035	      9.18340302	     15.01506703	    -13.43671168	     17.85910297	     93.25463372	     92.49244917	    -35.19619673	    -11.86016037	    -10.81693508	     86.11854307	     96.66912993
